<svg width="21" height="24" viewBox="0 0 21 24" fill="none" xmlns="http://www.w3.org/2000/svg">
<path d="M11.5125 2.08854C13.0894 0.0101326 15.2817 0 15.2817 0C15.2817 0 15.6078 1.95405 14.0412 3.83643C12.3685 5.84639 10.4673 5.5175 10.4673 5.5175C10.4673 5.5175 10.1102 3.93673 11.5125 2.08854ZM10.6678 6.88631C11.4791 6.88631 12.9847 5.77117 14.9444 5.77117C18.3179 5.77117 19.6449 8.17157 19.6449 8.17157C19.6449 8.17157 17.0494 9.49863 17.0494 12.7187C17.0494 16.3511 20.2827 17.603 20.2827 17.603C20.2827 17.603 18.0225 23.9648 14.9696 23.9648C13.5674 23.9648 12.4772 23.0198 10.9998 23.0198C9.49417 23.0198 8.00006 24 7.02694 24C4.23913 24.0001 0.717163 17.9653 0.717163 13.1143C0.717163 8.3417 3.69828 5.83804 6.49444 5.83804C8.3122 5.83804 9.7228 6.88631 10.6678 6.88631Z" fill="#0C0C0C"/>
</svg>
