<svg width="24" height="24" viewBox="0 0 24 24" fill="none" xmlns="http://www.w3.org/2000/svg">
<g clip-path="url(#clip0_4061_54375)">
<path d="M12.24 9.81836V14.4657H18.6982C18.4146 15.9602 17.5636 17.2257 16.2872 18.0766L20.1818 21.0985C22.4509 19.004 23.76 15.9276 23.76 12.273C23.76 11.4221 23.6836 10.6039 23.5418 9.81849L12.24 9.81836Z" fill="#4285F4"/>
<path d="M5.51487 14.2842L4.6365 14.9566L1.52734 17.3784C3.50189 21.2947 7.54889 24.0002 12.2398 24.0002C15.4797 24.0002 18.1961 22.9311 20.1816 21.0984L16.287 18.0766C15.2179 18.7966 13.8543 19.233 12.2398 19.233C9.11979 19.233 6.46894 17.1275 5.51978 14.2911L5.51487 14.2842Z" fill="#34A853"/>
<path d="M1.5273 6.62207C0.709157 8.23656 0.240112 10.0584 0.240112 12.0002C0.240112 13.942 0.709157 15.7639 1.5273 17.3784C1.5273 17.3892 5.52012 14.2802 5.52012 14.2802C5.28012 13.5602 5.13826 12.7966 5.13826 12.0001C5.13826 11.2036 5.28012 10.44 5.52012 9.72002L1.5273 6.62207Z" fill="#FBBC05"/>
<path d="M12.24 4.7782C14.0073 4.7782 15.5782 5.3891 16.8328 6.56731L20.2691 3.13097C18.1855 1.18917 15.4801 0 12.24 0C7.54914 0 3.5019 2.69456 1.52734 6.62186L5.52004 9.72007C6.46908 6.88366 9.12004 4.7782 12.24 4.7782Z" fill="#EA4335"/>
</g>
<defs>
<clipPath id="clip0_4061_54375">
<rect width="23.52" height="24" fill="white" transform="translate(0.23999)"/>
</clipPath>
</defs>
</svg>
